<?xml version="1.0" encoding="UTF-8"?>
<svg id="Capa_2" data-name="Capa 2" xmlns="http://www.w3.org/2000/svg" xmlns:xlink="http://www.w3.org/1999/xlink" viewBox="0 0 242.99 279.46">
  <defs>
    <style>
      .cls-1 {
        fill: url(#Degradado_sin_nombre_368);
      }

      .cls-2 {
        fill: url(#Degradado_sin_nombre_464);
      }

      .cls-3 {
        fill: url(#Degradado_sin_nombre_531);
      }

      .cls-4 {
        fill: url(#Degradado_sin_nombre_535);
      }

      .cls-5 {
        fill: url(#Degradado_sin_nombre_497);
      }

      .cls-6 {
        fill: url(#Degradado_sin_nombre_484);
      }

      .cls-7 {
        fill: url(#Degradado_sin_nombre_306);
      }
    </style>
    <linearGradient id="Degradado_sin_nombre_464" data-name="Degradado sin nombre 464" x1="0" y1="139.73" x2="242.99" y2="139.73" gradientUnits="userSpaceOnUse">
      <stop offset="0" stop-color="#76ff01"/>
      <stop offset="1" stop-color="#28b30a"/>
    </linearGradient>
    <linearGradient id="Degradado_sin_nombre_497" data-name="Degradado sin nombre 497" x1="207.25" y1="239.72" x2="12.28" y2="40.91" gradientUnits="userSpaceOnUse">
      <stop offset=".15" stop-color="#0ff311"/>
      <stop offset=".35" stop-color="#9cff00"/>
      <stop offset=".47" stop-color="#a0fd00"/>
      <stop offset=".86" stop-color="#abf900"/>
      <stop offset="1" stop-color="#7cfe02"/>
    </linearGradient>
    <linearGradient id="Degradado_sin_nombre_484" data-name="Degradado sin nombre 484" x1="83.07" y1="102.69" x2="82.37" y2="261.57" gradientUnits="userSpaceOnUse">
      <stop offset="0" stop-color="#172d01"/>
      <stop offset=".09" stop-color="#62bf08"/>
      <stop offset=".2" stop-color="#76ff01"/>
      <stop offset=".68" stop-color="#4cb801"/>
      <stop offset=".97" stop-color="#2e8c02"/>
    </linearGradient>
    <linearGradient id="Degradado_sin_nombre_531" data-name="Degradado sin nombre 531" x1="198.98" y1="194.47" x2="198.98" y2="35.06" gradientUnits="userSpaceOnUse">
      <stop offset="0" stop-color="#000"/>
      <stop offset=".1" stop-color="#054f02"/>
      <stop offset=".2" stop-color="#069a01"/>
      <stop offset=".86" stop-color="#83f421"/>
      <stop offset="1" stop-color="#7bef00"/>
    </linearGradient>
    <linearGradient id="Degradado_sin_nombre_535" data-name="Degradado sin nombre 535" x1="60.23" y1="120.05" x2="170.06" y2="41.49" gradientUnits="userSpaceOnUse">
      <stop offset=".63" stop-color="#6df915"/>
      <stop offset=".87" stop-color="#26c300"/>
      <stop offset="1" stop-color="#000"/>
    </linearGradient>
    <linearGradient id="Degradado_sin_nombre_368" data-name="Degradado sin nombre 368" x1="98.09" y1="3.19" x2="98.09" y2="30.6" gradientUnits="userSpaceOnUse">
      <stop offset="0" stop-color="#5fee11"/>
      <stop offset=".71" stop-color="#72f203"/>
      <stop offset="1" stop-color="#234202"/>
    </linearGradient>
    <linearGradient id="Degradado_sin_nombre_306" data-name="Degradado sin nombre 306" x1="122.66" y1="276.65" x2="122.66" y2="252.98" gradientUnits="userSpaceOnUse">
      <stop offset=".23" stop-color="#7bfe01"/>
      <stop offset=".72" stop-color="#054f02"/>
      <stop offset="1" stop-color="#000"/>
    </linearGradient>
  </defs>
  <g id="Capa_1-2" data-name="Capa 1">
    <g>
      <path class="cls-2" d="M19.1,252.98c-9.11-1.23-17.6-10.17-18.18-19.41-.24-49.71.39-99.44.05-149.15-.07-10.79-1.63-22.21-.66-33.1,1.64-18.36,21.3-27.11,36.62-17.53l149.66,149.17c2.47,1.49,5.03-4.25,5.99-6.21,8.95-18.38,7.81-60.15-3.97-77.41-21.7-31.81-57.82-22.65-90.84-24.46-11.41-11.31-22.7-22.75-34.07-34.09-1.72-1.71-8.24-6.29-7.05-8.89.12-.27,3.23-3.78,3.83-4.48,5.72-6.58,12.42-14.19,18.47-20.39,2.3-2.35,4.61-4.77,7.15-6.87L132.49.01c1.27-.14,3.49.88,3.49,2.23v28.36c43.87-2.54,84.6,21.74,100.31,63.1,9.18,24.16,8.78,72.31-.29,96.53-7.83,20.92-27.38,44.11-47.99,53.3-1.92.86-3.67,1.78-5.49.18L47.8,109.58l-2.26-.61v98.45c0,.07.89.96.96.96h80.26c11.01,10.48,22.45,21,32.83,32.17,1.03,1.1,6.47,6.9,6.68,7.35.32.7.49,1.2,0,1.89l-31.52,29.67-48.44-.04c-.3-.14-1.28-1.15-1.28-1.26v-24.21c0-.07-.89-.96-.96-.96H19.1ZM132.8,3.84c-8.66.37-17.15-.69-25.79-.63-1.34,0-2.85-.01-4.5,0-5.12.03-10.02-.08-15.12.13-7.05,7.52-14.5,14.94-21.16,22.8-1,1.19-2.56,2.94-2.86,4.47h69.43V3.84ZM4.13,48.76v58.94c1.31-1.04,1.92-2.78,3.17-4.16,7.27-7.98,18.3-10.35,28.38-6.7,9.24,3.35,31.77,27.51,40.12,35.67,36.62,35.81,71.79,73.14,109.05,108.29,17.22-7.49,31.74-21.47,41.22-37.58,1.37-2.33,5.79-10.21,6.11-12.37.12-.82-.1-1.32-.96-.95s-3.99,3.5-5.72,4.47c-14.3,7.98-28.06,2.96-39.53-7.01-11.19-9.73-22.36-22.57-33.09-33.17-39.87-39.38-79.28-79.05-119.23-118.41-10.76-6.41-27.71.12-29.53,12.97ZM197.13,107.06c-.93-33.8-24.93-71.82-61.44-73.3-21.72-.88-45.64.57-67.52.69-1.75,0-4.03-1.21-6.08-.66l.95,1.91,36.16,35.83c33.57,1.56,65.84-6.82,89.92,22.84l8.01,12.69ZM158.28,35.06c1.45,2.16,4.3,2.82,6.32,4.19,21.52,14.65,34.73,40.28,36.39,66.19.96,14.97,1.28,40.08-.04,54.81-.79,8.8-5.09,18.9-10.14,26.05,14.62,14.65,40.79,8.89,46.16-11.68,3.93-15.05,3.23-50.98.11-66.42-7.72-38.15-40.44-67.81-78.8-73.14ZM162.1,248.51l-36.91-36.67-81.58-.6-.98-1.57-.41-104.09c-14.91-13.88-36.5-5.31-38.12,15.15-2.84,35.83,2.19,75.34,0,111.56,1.21,10.04,8.06,16.72,18.16,17.52,21.67,1.71,47.05-.54,68.79-.69,21.86-.15,46.1,1.53,67.58.06,1.23-.08,2.3-.39,3.47-.68ZM157,252.98l-67.74.09-.98.91.02,21.52c.36,1.1,5.02,1.04,6.56,1.09,13.13.4,26.26-1.14,39.39-.8,6.86-6.94,14.17-13.46,21.17-20.24.74-.72,1.77-1.37,1.57-2.56Z"/>
      <path class="cls-5" d="M4.13,48.76c1.82-12.85,18.77-19.38,29.53-12.97,39.94,39.35,79.35,79.03,119.23,118.41,10.73,10.6,21.9,23.44,33.09,33.17,11.47,9.97,25.23,14.99,39.53,7.01,1.74-.97,4.88-4.11,5.72-4.47s1.08.14.96.95c-.32,2.16-4.74,10.04-6.11,12.37-9.48,16.11-24,30.09-41.22,37.58-37.26-35.15-72.42-72.48-109.05-108.29-8.35-8.16-30.88-32.33-40.12-35.67-10.08-3.65-21.11-1.28-28.38,6.7-1.25,1.37-1.86,3.11-3.17,4.16v-58.94Z"/>
      <path class="cls-6" d="M162.1,248.51c-1.17.29-2.24.59-3.47.68-21.48,1.47-45.73-.21-67.58-.06-21.74.15-47.12,2.4-68.79.69-10.1-.8-16.95-7.48-18.16-17.52,2.2-36.22-2.83-75.73,0-111.56,1.62-20.46,23.21-29.03,38.12-15.15l.41,104.09.98,1.57,81.58.6,36.91,36.67Z"/>
      <path class="cls-3" d="M158.28,35.06c38.36,5.33,71.08,34.99,78.8,73.14,3.12,15.44,3.82,51.37-.11,66.42-5.37,20.57-31.54,26.33-46.16,11.68,5.05-7.14,9.35-17.24,10.14-26.05,1.32-14.74.99-39.85.04-54.81-1.65-25.9-14.87-51.54-36.39-66.19-2.01-1.37-4.86-2.03-6.32-4.19Z"/>
      <path class="cls-4" d="M197.13,107.06l-8.01-12.69c-24.08-29.65-56.35-21.28-89.92-22.84l-36.16-35.83-.95-1.91c2.05-.56,4.33.67,6.08.66,21.88-.12,45.8-1.57,67.52-.69,36.5,1.49,60.5,39.51,61.44,73.3Z"/>
      <path class="cls-1" d="M132.8,3.84v26.76H63.37c.3-1.53,1.85-3.28,2.86-4.47,6.66-7.86,14.11-15.28,21.16-22.8,5.1-.2,10-.1,15.12-.13,1.65,0,3.16-.01,4.5,0,8.65.11,17.12.26,25.79.63Z"/>
      <path class="cls-7" d="M157,252.98c.2,1.19-.83,1.84-1.57,2.56-7,6.78-14.31,13.3-21.17,20.24-13.14-.34-26.26,1.2-39.39.8-1.54-.05-6.2.01-6.56-1.09l-.02-21.52.98-.91,67.74-.09Z"/>
    </g>
  </g>
</svg>