<?xml version="1.0" encoding="UTF-8"?>
<svg id="Capa_2" data-name="Capa 2" xmlns="http://www.w3.org/2000/svg" xmlns:xlink="http://www.w3.org/1999/xlink" viewBox="0 0 732.13 279.46">
  <defs>
    <style>
      .cls-1 {
        fill: url(#Degradado_sin_nombre_55-5);
      }

      .cls-2 {
        fill: url(#Degradado_sin_nombre_55-7);
      }

      .cls-3 {
        fill: url(#Degradado_sin_nombre_55-3);
      }

      .cls-4 {
        fill: url(#Degradado_sin_nombre_55-6);
      }

      .cls-5 {
        fill: url(#Degradado_sin_nombre_368);
      }

      .cls-6 {
        fill: url(#Degradado_sin_nombre_464);
      }

      .cls-7 {
        fill: url(#Degradado_sin_nombre_55-2);
      }

      .cls-8 {
        fill: url(#Degradado_sin_nombre_531);
      }

      .cls-9 {
        fill: url(#Degradado_sin_nombre_535);
      }

      .cls-10 {
        fill: url(#Degradado_sin_nombre_55);
      }

      .cls-11 {
        fill: url(#Degradado_sin_nombre_55-4);
      }

      .cls-12 {
        fill: url(#Degradado_sin_nombre_497);
      }

      .cls-13 {
        fill: url(#Degradado_sin_nombre_484);
      }

      .cls-14 {
        fill: url(#Degradado_sin_nombre_306);
      }

      .cls-15 {
        fill: url(#Degradado_sin_nombre_55-8);
      }

      .cls-16 {
        fill: url(#Degradado_sin_nombre_57);
      }
    </style>
    <linearGradient id="Degradado_sin_nombre_464" data-name="Degradado sin nombre 464" x1="0" y1="139.73" x2="242.99" y2="139.73" gradientUnits="userSpaceOnUse">
      <stop offset="0" stop-color="#76ff01"/>
      <stop offset="1" stop-color="#28b30a"/>
    </linearGradient>
    <linearGradient id="Degradado_sin_nombre_497" data-name="Degradado sin nombre 497" x1="207.25" y1="239.72" x2="12.28" y2="40.91" gradientUnits="userSpaceOnUse">
      <stop offset=".15" stop-color="#0ff311"/>
      <stop offset=".35" stop-color="#9cff00"/>
      <stop offset=".47" stop-color="#a0fd00"/>
      <stop offset=".86" stop-color="#abf900"/>
      <stop offset="1" stop-color="#7cfe02"/>
    </linearGradient>
    <linearGradient id="Degradado_sin_nombre_484" data-name="Degradado sin nombre 484" x1="83.07" y1="102.69" x2="82.37" y2="261.57" gradientUnits="userSpaceOnUse">
      <stop offset="0" stop-color="#172d01"/>
      <stop offset=".09" stop-color="#62bf08"/>
      <stop offset=".2" stop-color="#76ff01"/>
      <stop offset=".68" stop-color="#4cb801"/>
      <stop offset=".97" stop-color="#2e8c02"/>
    </linearGradient>
    <linearGradient id="Degradado_sin_nombre_531" data-name="Degradado sin nombre 531" x1="198.98" y1="194.47" x2="198.98" y2="35.06" gradientUnits="userSpaceOnUse">
      <stop offset="0" stop-color="#000"/>
      <stop offset=".1" stop-color="#054f02"/>
      <stop offset=".2" stop-color="#069a01"/>
      <stop offset=".86" stop-color="#83f421"/>
      <stop offset="1" stop-color="#7bef00"/>
    </linearGradient>
    <linearGradient id="Degradado_sin_nombre_535" data-name="Degradado sin nombre 535" x1="60.23" y1="120.05" x2="170.06" y2="41.49" gradientUnits="userSpaceOnUse">
      <stop offset=".63" stop-color="#6df915"/>
      <stop offset=".87" stop-color="#26c300"/>
      <stop offset="1" stop-color="#000"/>
    </linearGradient>
    <linearGradient id="Degradado_sin_nombre_368" data-name="Degradado sin nombre 368" x1="98.09" y1="3.19" x2="98.09" y2="30.6" gradientUnits="userSpaceOnUse">
      <stop offset="0" stop-color="#5fee11"/>
      <stop offset=".71" stop-color="#72f203"/>
      <stop offset="1" stop-color="#234202"/>
    </linearGradient>
    <linearGradient id="Degradado_sin_nombre_306" data-name="Degradado sin nombre 306" x1="122.66" y1="276.65" x2="122.66" y2="252.98" gradientUnits="userSpaceOnUse">
      <stop offset=".23" stop-color="#7bfe01"/>
      <stop offset=".72" stop-color="#054f02"/>
      <stop offset="1" stop-color="#000"/>
    </linearGradient>
    <linearGradient id="Degradado_sin_nombre_57" data-name="Degradado sin nombre 57" x1="293.68" y1="102.66" x2="362.59" y2="102.66" gradientUnits="userSpaceOnUse">
      <stop offset="0" stop-color="#fff"/>
      <stop offset="1" stop-color="#afa7a7"/>
    </linearGradient>
    <linearGradient id="Degradado_sin_nombre_55" data-name="Degradado sin nombre 55" x1="371.74" y1="102.29" x2="442.78" y2="102.29" gradientUnits="userSpaceOnUse">
      <stop offset="0" stop-color="#fff"/>
      <stop offset="1" stop-color="#d3d3d3"/>
    </linearGradient>
    <linearGradient id="Degradado_sin_nombre_55-2" data-name="Degradado sin nombre 55" x1="454.58" y1="102.66" x2="513.41" y2="102.66" xlink:href="#Degradado_sin_nombre_55"/>
    <linearGradient id="Degradado_sin_nombre_55-3" data-name="Degradado sin nombre 55" x1="521.16" y1="102.66" x2="579.98" y2="102.66" xlink:href="#Degradado_sin_nombre_55"/>
    <linearGradient id="Degradado_sin_nombre_55-4" data-name="Degradado sin nombre 55" x1="581.78" y1="102.08" x2="659.42" y2="102.08" xlink:href="#Degradado_sin_nombre_55"/>
    <linearGradient id="Degradado_sin_nombre_55-5" data-name="Degradado sin nombre 55" x1="668.24" x2="732.13" xlink:href="#Degradado_sin_nombre_55"/>
    <linearGradient id="Degradado_sin_nombre_55-6" data-name="Degradado sin nombre 55" x1="293.68" y1="187.5" x2="368.23" y2="187.5" xlink:href="#Degradado_sin_nombre_55"/>
    <linearGradient id="Degradado_sin_nombre_55-7" data-name="Degradado sin nombre 55" x1="380.25" y1="187.29" x2="451.29" y2="187.29" xlink:href="#Degradado_sin_nombre_55"/>
    <linearGradient id="Degradado_sin_nombre_55-8" data-name="Degradado sin nombre 55" x1="458.39" y1="187.93" x2="570.97" y2="187.93" xlink:href="#Degradado_sin_nombre_55"/>
  </defs>
  <g id="Capa_1-2" data-name="Capa 1">
    <g>
      <path class="cls-6" d="M19.1,252.98c-9.11-1.23-17.6-10.17-18.18-19.41-.24-49.71.39-99.44.05-149.15-.07-10.79-1.63-22.21-.66-33.1,1.64-18.36,21.3-27.11,36.62-17.53l149.66,149.17c2.47,1.49,5.03-4.25,5.99-6.21,8.95-18.38,7.81-60.15-3.97-77.41-21.7-31.81-57.82-22.65-90.84-24.46-11.41-11.31-22.7-22.75-34.07-34.09-1.72-1.71-8.24-6.29-7.05-8.89.12-.27,3.23-3.78,3.83-4.48,5.72-6.58,12.42-14.19,18.47-20.39,2.3-2.35,4.61-4.77,7.15-6.87L132.49.01c1.27-.14,3.49.88,3.49,2.23v28.36c43.87-2.54,84.6,21.74,100.31,63.1,9.18,24.16,8.78,72.31-.29,96.53-7.83,20.92-27.38,44.11-47.99,53.3-1.92.86-3.67,1.78-5.49.18L47.8,109.58l-2.26-.61v98.45c0,.07.89.96.96.96h80.26c11.01,10.48,22.45,21,32.83,32.17,1.03,1.1,6.47,6.9,6.68,7.35.32.7.49,1.2,0,1.89l-31.52,29.67-48.44-.04c-.3-.14-1.28-1.15-1.28-1.26v-24.21c0-.07-.89-.96-.96-.96H19.1ZM132.8,3.84c-8.66.37-17.15-.69-25.79-.63-1.34,0-2.85-.01-4.5,0-5.12.03-10.02-.08-15.12.13-7.05,7.52-14.5,14.94-21.16,22.8-1,1.19-2.56,2.94-2.86,4.47h69.43V3.84ZM4.13,48.76v58.94c1.31-1.04,1.92-2.78,3.17-4.16,7.27-7.98,18.3-10.35,28.38-6.7,9.24,3.35,31.77,27.51,40.12,35.67,36.62,35.81,71.79,73.14,109.05,108.29,17.22-7.49,31.74-21.47,41.22-37.58,1.37-2.33,5.79-10.21,6.11-12.37.12-.82-.1-1.32-.96-.95s-3.99,3.5-5.72,4.47c-14.3,7.98-28.06,2.96-39.53-7.01-11.19-9.73-22.36-22.57-33.09-33.17-39.87-39.38-79.28-79.05-119.23-118.41-10.76-6.41-27.71.12-29.53,12.97ZM197.13,107.06c-.93-33.8-24.93-71.82-61.44-73.3-21.72-.88-45.64.57-67.52.69-1.75,0-4.03-1.21-6.08-.66l.95,1.91,36.16,35.83c33.57,1.56,65.84-6.82,89.92,22.84l8.01,12.69ZM158.28,35.06c1.45,2.16,4.3,2.82,6.32,4.19,21.52,14.65,34.73,40.28,36.39,66.19.96,14.97,1.28,40.08-.04,54.81-.79,8.8-5.09,18.9-10.14,26.05,14.62,14.65,40.79,8.89,46.16-11.68,3.93-15.05,3.23-50.98.11-66.42-7.72-38.15-40.44-67.81-78.8-73.14ZM162.1,248.51l-36.91-36.67-81.58-.6-.98-1.57-.41-104.09c-14.91-13.88-36.5-5.31-38.12,15.15-2.84,35.83,2.19,75.34,0,111.56,1.21,10.04,8.06,16.72,18.16,17.52,21.67,1.71,47.05-.54,68.79-.69,21.86-.15,46.1,1.53,67.58.06,1.23-.08,2.3-.39,3.47-.68ZM157,252.98l-67.74.09-.98.91.02,21.52c.36,1.1,5.02,1.04,6.56,1.09,13.13.4,26.26-1.14,39.39-.8,6.86-6.94,14.17-13.46,21.17-20.24.74-.72,1.77-1.37,1.57-2.56Z"/>
      <path class="cls-12" d="M4.13,48.76c1.82-12.85,18.77-19.38,29.53-12.97,39.94,39.35,79.35,79.03,119.23,118.41,10.73,10.6,21.9,23.44,33.09,33.17,11.47,9.97,25.23,14.99,39.53,7.01,1.74-.97,4.88-4.11,5.72-4.47s1.08.14.96.95c-.32,2.16-4.74,10.04-6.11,12.37-9.48,16.11-24,30.09-41.22,37.58-37.26-35.15-72.42-72.48-109.05-108.29-8.35-8.16-30.88-32.33-40.12-35.67-10.08-3.65-21.11-1.28-28.38,6.7-1.25,1.37-1.86,3.11-3.17,4.16v-58.94Z"/>
      <path class="cls-13" d="M162.1,248.51c-1.17.29-2.24.59-3.47.68-21.48,1.47-45.73-.21-67.58-.06-21.74.15-47.12,2.4-68.79.69-10.1-.8-16.95-7.48-18.16-17.52,2.2-36.22-2.83-75.73,0-111.56,1.62-20.46,23.21-29.03,38.12-15.15l.41,104.09.98,1.57,81.58.6,36.91,36.67Z"/>
      <path class="cls-8" d="M158.28,35.06c38.36,5.33,71.08,34.99,78.8,73.14,3.12,15.44,3.82,51.37-.11,66.42-5.37,20.57-31.54,26.33-46.16,11.68,5.05-7.14,9.35-17.24,10.14-26.05,1.32-14.74.99-39.85.04-54.81-1.65-25.9-14.87-51.54-36.39-66.19-2.01-1.37-4.86-2.03-6.32-4.19Z"/>
      <path class="cls-9" d="M197.13,107.06l-8.01-12.69c-24.08-29.65-56.35-21.28-89.92-22.84l-36.16-35.83-.95-1.91c2.05-.56,4.33.67,6.08.66,21.88-.12,45.8-1.57,67.52-.69,36.5,1.49,60.5,39.51,61.44,73.3Z"/>
      <path class="cls-5" d="M132.8,3.84v26.76H63.37c.3-1.53,1.85-3.28,2.86-4.47,6.66-7.86,14.11-15.28,21.16-22.8,5.1-.2,10-.1,15.12-.13,1.65,0,3.16-.01,4.5,0,8.65.11,17.12.26,25.79.63Z"/>
      <path class="cls-14" d="M157,252.98c.2,1.19-.83,1.84-1.57,2.56-7,6.78-14.31,13.3-21.17,20.24-13.14-.34-26.26,1.2-39.39.8-1.54-.05-6.2.01-6.56-1.09l-.02-21.52.98-.91,67.74-.09Z"/>
    </g>
    <g>
      <path class="cls-16" d="M351.96,133.03c-5.21,4.15-13.93,6.06-29.35,6.06-9.78,0-19.57-.32-26.69-.74-.64,0-2.23-.64-2.23-2.98v-65.94c0-1.91,1.6-2.34,2.13-2.34,7.98-.32,19.25-.85,27.44-.85,17.97,0,25.84,2.02,30.84,6.17,4.68,3.94,8.51,12.98,8.51,28.93s-4.79,27.12-10.64,31.69ZM338.66,85.06c-2.45-2.13-7.87-2.77-14.15-2.77-3.51,0-7.66,0-9.78.21-1.81.11-2.02.85-2.02,2.66v35.2c0,1.81.53,2.34,2.45,2.45,2.23.11,5.85.11,10,.11,7.13,0,10.95-.96,12.98-2.55,2.55-2.02,5-8.51,5-18.19,0-10.32-2.02-14.89-4.47-17.12Z"/>
      <path class="cls-10" d="M432.57,133.13c-5.74,4.47-16.06,6.59-26.16,6.59-14.46,0-21.8-3.3-26.16-7.44-4.89-4.47-8.51-13.72-8.51-29.78s4.79-26.06,10.42-30.84c4.57-3.72,13.19-6.81,26.06-6.81,13.61,0,21.59,2.66,25.95,6.81,4.68,4.25,8.61,14.68,8.61,30.31s-4.36,26.48-10.21,31.16ZM419.28,84c-2.34-2.02-7.13-2.87-11.7-2.87-6.06,0-10,1.49-11.91,3.19-2.23,2.23-4.79,8.4-4.79,18.08s1.91,15.42,4.36,17.76c2.13,2.13,6.49,3.3,11.38,3.3,6.17,0,10.42-1.28,12.23-2.87,2.23-2.13,4.57-8.19,4.57-18.61,0-9.78-1.81-15.42-4.15-17.97Z"/>
      <path class="cls-7" d="M454.58,68.36c0-1.06.43-1.81,1.6-1.81h12.44c4.04,0,5,.64,5,5.53v47.97c0,2.45.74,3.08,2.87,3.19,2.23,0,7.02.11,11.49.11,8.3,0,17.23-.32,23.19-.64,1.49-.21,2.34.43,2.23,2.02-.21,4.36-3.72,11.06-6.27,12.44-2.34,1.17-6.06,1.6-21.59,1.6-11.59,0-21.7,0-28.5-.43-.85,0-2.45-.43-2.45-2.87v-67.11Z"/>
      <path class="cls-3" d="M521.16,68.36c0-1.06.43-1.81,1.6-1.81h12.44c4.04,0,5,.64,5,5.53v47.97c0,2.45.74,3.08,2.87,3.19,2.23,0,7.02.11,11.49.11,8.3,0,17.23-.32,23.19-.64,1.49-.21,2.34.43,2.23,2.02-.21,4.36-3.72,11.06-6.27,12.44-2.34,1.17-6.06,1.6-21.59,1.6-11.59,0-21.7,0-28.5-.43-.85,0-2.45-.43-2.45-2.87v-67.11Z"/>
      <path class="cls-11" d="M602.62,131.22c-1.49,5.1-3.72,7.23-10.64,7.23h-8.3c-1.06,0-1.91-.96-1.91-1.6,0-.74.21-1.81.74-3.3l14.36-47.54c3.19-10.53,5.42-14.36,7.76-16.38,2.77-2.34,7.76-3.94,16.91-3.94s13.83,1.28,16.38,3.62c2.13,1.91,4.25,6.17,7.13,16.48l14.04,49.03q.32,1.38.32,2.34c0,.74-.53,1.28-1.6,1.28h-9.68c-7.13,0-9.25-2.02-10.95-7.34l-3.3-11.27c-.74-2.34-1.38-3.19-4.47-3.19h-19.04c-2.66,0-3.72.85-4.47,3.4l-3.3,11.17ZM628.68,95.7l-1.7-6.7c-1.06-4.25-2.02-5.64-2.77-6.38-.74-.64-1.7-1.06-3.72-1.06s-3.19.53-3.94,1.06c-.96.74-1.81,2.45-3.08,6.59l-2.13,7.02c-.53,1.7-.96,3.4-.96,3.94,0,1.7.96,2.23,3.94,2.23h11.59c3.4,0,3.72-.74,3.72-2.34,0-.53-.32-2.13-.96-4.36Z"/>
      <path class="cls-1" d="M668.24,68.68c0-1.38.96-1.81,1.91-1.81,7.34-.32,16.91-.74,26.27-.74,17.12,0,22.97,1.06,26.69,3.62,4.04,2.66,6.38,7.34,6.38,15.95s-2.34,13.93-5.1,17.65c-1.38,2.02-1.91,3.08-1.91,4.47,0,1.81.74,4.47,2.13,8.4l7.34,19.25c.53,1.6-.11,2.98-1.81,2.98h-7.23c-8.19,0-10.64-1.7-13.4-9.57l-3.19-8.93c-1.91-5.1-3.19-6.06-8.08-6.06h-8.3c-2.23,0-2.87.43-2.87,3.19v18.19c0,2.34-.64,3.19-2.77,3.19h-14.25c-1.28,0-1.81-.74-1.81-2.13v-67.64ZM708.02,82.19c-1.17-1.06-3.72-1.49-10.1-1.49-3.19,0-7.34.11-9.25.21-1.17.11-1.7.64-1.7,2.34v13.29c0,2.45.43,3.08,2.87,3.08h10.32c3.62,0,5.1-.11,6.38-.74,1.38-.53,3.83-4.36,3.83-9.57,0-3.72-.74-5.85-2.34-7.13Z"/>
      <path class="cls-4" d="M368.23,208.99c0,6.59-.96,10-2.77,12.12-2.02,2.13-5.96,3.19-15.85,3.19-8.3,0-12.12-.85-14.46-2.87-2.23-1.81-4.47-5.53-6.17-11.06l-12.34-39.78c-.96-3.08-1.91-4.04-3.62-4.04-1.91,0-2.34.74-2.34,2.66v46.26c0,7.02-3.19,7.98-10.53,7.98h-4.57c-1.28,0-1.91-.85-1.91-2.13v-52.86c0-8.93,1.06-12.55,3.51-14.78,2.23-1.91,6.59-2.98,14.68-2.98,7.34,0,11.38.96,14.15,2.87,2.55,1.91,4.89,6.17,7.13,13.29l12.02,38.07c.96,3.08,1.81,3.94,3.62,3.94s2.13-1.49,2.13-3.72v-45.84c0-5.96,1.38-7.76,9.78-7.76h5.53c1.49,0,2.02.74,2.02,2.02v55.41Z"/>
      <path class="cls-2" d="M441.08,218.13c-5.74,4.47-16.06,6.59-26.16,6.59-14.46,0-21.8-3.3-26.16-7.44-4.89-4.47-8.51-13.72-8.51-29.78s4.79-26.06,10.42-30.84c4.57-3.72,13.19-6.81,26.06-6.81,13.61,0,21.59,2.66,25.95,6.81,4.68,4.25,8.61,14.68,8.61,30.31s-4.36,26.48-10.21,31.16ZM427.79,169c-2.34-2.02-7.13-2.87-11.7-2.87-6.06,0-10,1.49-11.91,3.19-2.23,2.23-4.79,8.4-4.79,18.08s1.91,15.42,4.36,17.76c2.13,2.13,6.49,3.3,11.38,3.3,6.17,0,10.42-1.28,12.23-2.87,2.23-2.13,4.57-8.19,4.57-18.61,0-9.78-1.81-15.42-4.15-17.97Z"/>
      <path class="cls-15" d="M468.09,151.56c7.23,0,10.1,1.6,10.85,9.89l5.42,43.71c.53,2.77,1.38,3.3,3.3,3.3,2.02,0,2.98-.53,3.4-3.4l4.89-33.82c.74-6.27,2.45-10.74,4.68-12.55,2.34-2.02,6.91-3.4,14.68-3.4s12.87,1.06,15.21,3.08c2.13,1.91,3.62,5.85,4.15,12.66l4.36,34.14c.43,2.98,1.17,3.3,3.08,3.3,2.02,0,2.87-.53,3.19-3.3l6.49-45.09c.74-6.7,3.72-8.51,9.68-8.51h7.02c1.81,0,2.66,1.17,2.45,2.87l-9.36,54.67c-1.06,7.02-2.87,9.78-5.1,11.81-2.34,2.02-6.91,3.4-15.1,3.4-7.02,0-12.76-.96-15.1-3.08-2.23-2.13-3.51-5.1-4.25-13.19l-3.94-34.14c-.32-2.77-.74-3.51-2.87-3.51-2.23,0-2.66.74-3.08,3.62l-4.89,34.14c-.96,7.76-2.55,10.95-4.89,12.98-2.34,2.13-8.61,3.19-15.74,3.19-8.83,0-13.08-1.06-15.21-2.98-1.91-1.7-3.51-4.15-4.68-13.08l-8.3-54.03c-.21-1.7.85-2.66,2.02-2.66h7.66Z"/>
    </g>
  </g>
</svg>